ISO-10303-21;
HEADER;
FILE_DESCRIPTION ((''), '2;1');
FILE_NAME ('', '2019-09-09T13:33:07', (''), (''), 'Processor version 5.1.0.0', 'Xbim.IO.MemoryModel', '');
FILE_SCHEMA (('IFC4'));
ENDSEC;
DATA;
#1=IFCPROJECT('1bZLhQBpX6hhTtVD0_r8Yi',#2,'HelloWall',$,$,$,$,(#19,#22),#7);
#2=IFCOWNERHISTORY(#5,#6,$,.ADDED.,1568035989,$,$,0);
#3=IFCPERSON($,'Team','Jimmy',$,$,$,$,$);
#4=IFCORGANIZATION($,'TUM',$,$,$);
#5=IFCPERSONANDORGANIZATION(#3,#4,$);
#6=IFCAPPLICATION(#4,'1.0','Creation of IFC files from txt files','2019_09');
#7=IFCUNITASSIGNMENT((#8,#9,#10,#11,#12,#13,#14,#15,#16));
#8=IFCSIUNIT(*,.LENGTHUNIT.,.MILLI.,.METRE.);
#9=IFCSIUNIT(*,.AREAUNIT.,$,.SQUARE_METRE.);
#10=IFCSIUNIT(*,.VOLUMEUNIT.,$,.CUBIC_METRE.);
#11=IFCSIUNIT(*,.SOLIDANGLEUNIT.,$,.STERADIAN.);
#12=IFCSIUNIT(*,.PLANEANGLEUNIT.,$,.RADIAN.);
#13=IFCSIUNIT(*,.MASSUNIT.,$,.GRAM.);
#14=IFCSIUNIT(*,.TIMEUNIT.,$,.SECOND.);
#15=IFCSIUNIT(*,.THERMODYNAMICTEMPERATUREUNIT.,$,.DEGREE_CELSIUS.);
#16=IFCSIUNIT(*,.LUMINOUSINTENSITYUNIT.,$,.LUMEN.);
#17=IFCCARTESIANPOINT((0.,0.,0.));
#18=IFCAXIS2PLACEMENT3D(#17,$,$);
#19=IFCGEOMETRICREPRESENTATIONCONTEXT('Building Model','Model',3,1.E-05,#18,$);
#20=IFCCARTESIANPOINT((0.,0.));
#21=IFCAXIS2PLACEMENT2D(#20,$);
#22=IFCGEOMETRICREPRESENTATIONCONTEXT('Building Plan View','Plan',2,1.E-05,#21,$);
#23=IFCBUILDING('3oudh88s9ESR1w0NbHZU86',#2,'Default Building',$,$,#24,$,$,.ELEMENT.,$,$,$);
#24=IFCLOCALPLACEMENT($,#25);
#25=IFCAXIS2PLACEMENT3D(#26,$,$);
#26=IFCCARTESIANPOINT((0.,0.,0.));
#27=IFCRELAGGREGATES('0lXB83eLL7iwdvPjkTSfzr',#2,$,$,#1,(#23));
#28=IFCWALLSTANDARDCASE('3jjunvN0rB4hJvoQsuzNOB',#2,'A Standard rectangular wall',$,$,#38,#37,$,$);
#29=IFCRECTANGLEPROFILEDEF(.AREA.,$,#31,5.,65.333333334);
#30=IFCCARTESIANPOINT((0.,0.));
#31=IFCAXIS2PLACEMENT2D(#30,$);
#32=IFCEXTRUDEDAREASOLID(#29,#35,#33,100.);
#33=IFCDIRECTION((0.,0.,1.));
#34=IFCCARTESIANPOINT((170.,111.33333333350001,0.));
#35=IFCAXIS2PLACEMENT3D(#34,$,$);
#36=IFCSHAPEREPRESENTATION(#19,'Body','SweptSolid',(#32));
#37=IFCPRODUCTDEFINITIONSHAPE($,$,(#36,#51));
#38=IFCLOCALPLACEMENT($,#39);
#39=IFCAXIS2PLACEMENT3D(#34,#41,#40);
#40=IFCDIRECTION((1.,0.,0.));
#41=IFCDIRECTION((0.,0.,1.));
#42=IFCMATERIALLAYERSETUSAGE(#43,.AXIS2.,.NEGATIVE.,150.,$);
#43=IFCMATERIALLAYERSET((#44),$,$);
#44=IFCMATERIALLAYER($,10.,$,$,$,$,$);
#45=IFCMATERIAL('some material',$,$);
#46=IFCRELASSOCIATESMATERIAL('1GMVP9nHPEEvlv$sCEeoiV',#2,$,$,(#28),#42);
#47=IFCPRESENTATIONLAYERASSIGNMENT('some ifcPresentationLayerAssignment',$,(#36),$);
#48=IFCPOLYLINE((#49,#50));
#49=IFCCARTESIANPOINT((170.,95.));
#50=IFCCARTESIANPOINT((170.,127.666666667));
#51=IFCSHAPEREPRESENTATION(#19,'Axis','Curve2D',(#48));
#52=IFCRELCONTAINEDINSPATIALSTRUCTURE('2YjYZkNWz0a8m9svXe6yFe',#2,$,$,(#28,#53,#77,#101,#125,#149,#173,#197,#221,#245,#269,#293,#317,#341,#365,#389,#413,#437,#461,#485,#509,#533,#557,#581,#605,#629,#653,#677,#701),#23);
#53=IFCWALLSTANDARDCASE('0eQ1uca69DtOMyBYxOi0d9',#2,'A Standard rectangular wall',$,$,#63,#62,$,$);
#54=IFCRECTANGLEPROFILEDEF(.AREA.,$,#56,107.555555556,5.);
#55=IFCCARTESIANPOINT((0.,0.));
#56=IFCAXIS2PLACEMENT2D(#55,$);
#57=IFCEXTRUDEDAREASOLID(#54,#60,#58,100.);
#58=IFCDIRECTION((0.,0.,1.));
#59=IFCCARTESIANPOINT((143.111111111,127.666666667,0.));
#60=IFCAXIS2PLACEMENT3D(#59,$,$);
#61=IFCSHAPEREPRESENTATION(#19,'Body','SweptSolid',(#57));
#62=IFCPRODUCTDEFINITIONSHAPE($,$,(#61,#76));
#63=IFCLOCALPLACEMENT($,#64);
#64=IFCAXIS2PLACEMENT3D(#59,#66,#65);
#65=IFCDIRECTION((1.,0.,0.));
#66=IFCDIRECTION((0.,0.,1.));
#67=IFCMATERIALLAYERSETUSAGE(#68,.AXIS2.,.NEGATIVE.,150.,$);
#68=IFCMATERIALLAYERSET((#69),$,$);
#69=IFCMATERIALLAYER($,10.,$,$,$,$,$);
#70=IFCMATERIAL('some material',$,$);
#71=IFCRELASSOCIATESMATERIAL('0T5Qu_giL5puiPGBVMLpiS',#2,$,$,(#53),#67);
#72=IFCPRESENTATIONLAYERASSIGNMENT('some ifcPresentationLayerAssignment',$,(#61),$);
#73=IFCPOLYLINE((#74,#75));
#74=IFCCARTESIANPOINT((116.222222222,127.666666667));
#75=IFCCARTESIANPOINT((170.,127.666666667));
#76=IFCSHAPEREPRESENTATION(#19,'Axis','Curve2D',(#73));
#77=IFCWALLSTANDARDCASE('1v_4sFjn1FnOKwhANqaaly',#2,'A Standard rectangular wall',$,$,#87,#86,$,$);
#78=IFCRECTANGLEPROFILEDEF(.AREA.,$,#80,5.,76.);
#79=IFCCARTESIANPOINT((0.,0.));
#80=IFCAXIS2PLACEMENT2D(#79,$);
#81=IFCEXTRUDEDAREASOLID(#78,#84,#82,100.);
#82=IFCDIRECTION((0.,0.,1.));
#83=IFCCARTESIANPOINT((117.333333333,243.,0.));
#84=IFCAXIS2PLACEMENT3D(#83,$,$);
#85=IFCSHAPEREPRESENTATION(#19,'Body','SweptSolid',(#81));
#86=IFCPRODUCTDEFINITIONSHAPE($,$,(#85,#100));
#87=IFCLOCALPLACEMENT($,#88);
#88=IFCAXIS2PLACEMENT3D(#83,#90,#89);
#89=IFCDIRECTION((1.,0.,0.));
#90=IFCDIRECTION((0.,0.,1.));
#91=IFCMATERIALLAYERSETUSAGE(#92,.AXIS2.,.NEGATIVE.,150.,$);
#92=IFCMATERIALLAYERSET((#93),$,$);
#93=IFCMATERIALLAYER($,10.,$,$,$,$,$);
#94=IFCMATERIAL('some material',$,$);
#95=IFCRELASSOCIATESMATERIAL('1HAA_R1uP4zxprRO1RmBYC',#2,$,$,(#77),#91);
#96=IFCPRESENTATIONLAYERASSIGNMENT('some ifcPresentationLayerAssignment',$,(#85),$);
#97=IFCPOLYLINE((#98,#99));
#98=IFCCARTESIANPOINT((117.333333333,224.));
#99=IFCCARTESIANPOINT((117.333333333,262.));
#100=IFCSHAPEREPRESENTATION(#19,'Axis','Curve2D',(#97));
#101=IFCWALLSTANDARDCASE('1OqjfUkubDc8JXRuJd6opb',#2,'A Standard rectangular wall',$,$,#111,#110,$,$);
#102=IFCRECTANGLEPROFILEDEF(.AREA.,$,#104,165.33333333259998,5.);
#103=IFCCARTESIANPOINT((0.,0.));
#104=IFCAXIS2PLACEMENT2D(#103,$);
#105=IFCEXTRUDEDAREASOLID(#102,#108,#106,100.);
#106=IFCDIRECTION((0.,0.,1.));
#107=IFCCARTESIANPOINT((75.99999999984999,262.,0.));
#108=IFCAXIS2PLACEMENT3D(#107,$,$);
#109=IFCSHAPEREPRESENTATION(#19,'Body','SweptSolid',(#105));
#110=IFCPRODUCTDEFINITIONSHAPE($,$,(#109,#124));
#111=IFCLOCALPLACEMENT($,#112);
#112=IFCAXIS2PLACEMENT3D(#107,#114,#113);
#113=IFCDIRECTION((1.,0.,0.));
#114=IFCDIRECTION((0.,0.,1.));
#115=IFCMATERIALLAYERSETUSAGE(#116,.AXIS2.,.NEGATIVE.,150.,$);
#116=IFCMATERIALLAYERSET((#117),$,$);
#117=IFCMATERIALLAYER($,10.,$,$,$,$,$);
#118=IFCMATERIAL('some material',$,$);
#119=IFCRELASSOCIATESMATERIAL('1WAjXVqoP1lwSCVcFt62dF',#2,$,$,(#101),#115);
#120=IFCPRESENTATIONLAYERASSIGNMENT('some ifcPresentationLayerAssignment',$,(#109),$);
#121=IFCPOLYLINE((#122,#123));
#122=IFCCARTESIANPOINT((34.6666666667,262.));
#123=IFCCARTESIANPOINT((117.333333333,262.));
#124=IFCSHAPEREPRESENTATION(#19,'Axis','Curve2D',(#121));
#125=IFCWALLSTANDARDCASE('2Pq4lM3qD5ax7J7XSuiRUH',#2,'A Standard rectangular wall',$,$,#135,#134,$,$);
#126=IFCRECTANGLEPROFILEDEF(.AREA.,$,#128,5.,85.);
#127=IFCCARTESIANPOINT((0.,0.));
#128=IFCAXIS2PLACEMENT2D(#127,$);
#129=IFCEXTRUDEDAREASOLID(#126,#132,#130,100.);
#130=IFCDIRECTION((0.,0.,1.));
#131=IFCCARTESIANPOINT((229.333333333,453.25,0.));
#132=IFCAXIS2PLACEMENT3D(#131,$,$);
#133=IFCSHAPEREPRESENTATION(#19,'Body','SweptSolid',(#129));
#134=IFCPRODUCTDEFINITIONSHAPE($,$,(#133,#148));
#135=IFCLOCALPLACEMENT($,#136);
#136=IFCAXIS2PLACEMENT3D(#131,#138,#137);
#137=IFCDIRECTION((1.,0.,0.));
#138=IFCDIRECTION((0.,0.,1.));
#139=IFCMATERIALLAYERSETUSAGE(#140,.AXIS2.,.NEGATIVE.,150.,$);
#140=IFCMATERIALLAYERSET((#141),$,$);
#141=IFCMATERIALLAYER($,10.,$,$,$,$,$);
#142=IFCMATERIAL('some material',$,$);
#143=IFCRELASSOCIATESMATERIAL('2Ok8FFjkH7vPWtORsuJ0bR',#2,$,$,(#125),#139);
#144=IFCPRESENTATIONLAYERASSIGNMENT('some ifcPresentationLayerAssignment',$,(#133),$);
#145=IFCPOLYLINE((#146,#147));
#146=IFCCARTESIANPOINT((229.333333333,432.));
#147=IFCCARTESIANPOINT((229.333333333,474.5));
#148=IFCSHAPEREPRESENTATION(#19,'Axis','Curve2D',(#145));
#149=IFCWALLSTANDARDCASE('35mhc7xgvDw8ysUJy1yfQ4',#2,'A Standard rectangular wall',$,$,#159,#158,$,$);
#150=IFCRECTANGLEPROFILEDEF(.AREA.,$,#152,386.666666666,5.);
#151=IFCCARTESIANPOINT((0.,0.));
#152=IFCAXIS2PLACEMENT2D(#151,$);
#153=IFCEXTRUDEDAREASOLID(#150,#156,#154,100.);
#154=IFCDIRECTION((0.,0.,1.));
#155=IFCCARTESIANPOINT((132.66666666650002,474.5,0.));
#156=IFCAXIS2PLACEMENT3D(#155,$,$);
#157=IFCSHAPEREPRESENTATION(#19,'Body','SweptSolid',(#153));
#158=IFCPRODUCTDEFINITIONSHAPE($,$,(#157,#172));
#159=IFCLOCALPLACEMENT($,#160);
#160=IFCAXIS2PLACEMENT3D(#155,#162,#161);
#161=IFCDIRECTION((1.,0.,0.));
#162=IFCDIRECTION((0.,0.,1.));
#163=IFCMATERIALLAYERSETUSAGE(#164,.AXIS2.,.NEGATIVE.,150.,$);
#164=IFCMATERIALLAYERSET((#165),$,$);
#165=IFCMATERIALLAYER($,10.,$,$,$,$,$);
#166=IFCMATERIAL('some material',$,$);
#167=IFCRELASSOCIATESMATERIAL('3dHbr$ie530w8hRljyuPrn',#2,$,$,(#149),#163);
#168=IFCPRESENTATIONLAYERASSIGNMENT('some ifcPresentationLayerAssignment',$,(#157),$);
#169=IFCPOLYLINE((#170,#171));
#170=IFCCARTESIANPOINT((36.,474.5));
#171=IFCCARTESIANPOINT((229.333333333,474.5));
#172=IFCSHAPEREPRESENTATION(#19,'Axis','Curve2D',(#169));
#173=IFCWALLSTANDARDCASE('0ocuZfuqb4ZxxxbuwkQRtp',#2,'A Standard rectangular wall',$,$,#183,#182,$,$);
#174=IFCRECTANGLEPROFILEDEF(.AREA.,$,#176,22.,5.);
#175=IFCCARTESIANPOINT((0.,0.));
#176=IFCAXIS2PLACEMENT2D(#175,$);
#177=IFCEXTRUDEDAREASOLID(#174,#180,#178,100.);
#178=IFCDIRECTION((0.,0.,1.));
#179=IFCCARTESIANPOINT((37.5,127.777777778,0.));
#180=IFCAXIS2PLACEMENT3D(#179,$,$);
#181=IFCSHAPEREPRESENTATION(#19,'Body','SweptSolid',(#177));
#182=IFCPRODUCTDEFINITIONSHAPE($,$,(#181,#196));
#183=IFCLOCALPLACEMENT($,#184);
#184=IFCAXIS2PLACEMENT3D(#179,#186,#185);
#185=IFCDIRECTION((1.,0.,0.));
#186=IFCDIRECTION((0.,0.,1.));
#187=IFCMATERIALLAYERSETUSAGE(#188,.AXIS2.,.NEGATIVE.,150.,$);
#188=IFCMATERIALLAYERSET((#189),$,$);
#189=IFCMATERIALLAYER($,10.,$,$,$,$,$);
#190=IFCMATERIAL('some material',$,$);
#191=IFCRELASSOCIATESMATERIAL('1ZLncUVD54DQbdtMB5cwp1',#2,$,$,(#173),#187);
#192=IFCPRESENTATIONLAYERASSIGNMENT('some ifcPresentationLayerAssignment',$,(#181),$);
#193=IFCPOLYLINE((#194,#195));
#194=IFCCARTESIANPOINT((32.,127.777777778));
#195=IFCCARTESIANPOINT((43.,127.777777778));
#196=IFCSHAPEREPRESENTATION(#19,'Axis','Curve2D',(#193));
#197=IFCWALLSTANDARDCASE('3L7kCqRTLDexdP_2RfdqAl',#2,'A Standard rectangular wall',$,$,#207,#206,$,$);
#198=IFCRECTANGLEPROFILEDEF(.AREA.,$,#200,5.,243.555555556);
#199=IFCCARTESIANPOINT((0.,0.));
#200=IFCAXIS2PLACEMENT2D(#199,$);
#201=IFCEXTRUDEDAREASOLID(#198,#204,#202,100.);
#202=IFCDIRECTION((0.,0.,1.));
#203=IFCCARTESIANPOINT((32.,66.888888889,0.));
#204=IFCAXIS2PLACEMENT3D(#203,$,$);
#205=IFCSHAPEREPRESENTATION(#19,'Body','SweptSolid',(#201));
#206=IFCPRODUCTDEFINITIONSHAPE($,$,(#205,#220));
#207=IFCLOCALPLACEMENT($,#208);
#208=IFCAXIS2PLACEMENT3D(#203,#210,#209);
#209=IFCDIRECTION((1.,0.,0.));
#210=IFCDIRECTION((0.,0.,1.));
#211=IFCMATERIALLAYERSETUSAGE(#212,.AXIS2.,.NEGATIVE.,150.,$);
#212=IFCMATERIALLAYERSET((#213),$,$);
#213=IFCMATERIALLAYER($,10.,$,$,$,$,$);
#214=IFCMATERIAL('some material',$,$);
#215=IFCRELASSOCIATESMATERIAL('3AwfJeZI1Ap8cdD0KphS$c',#2,$,$,(#197),#211);
#216=IFCPRESENTATIONLAYERASSIGNMENT('some ifcPresentationLayerAssignment',$,(#205),$);
#217=IFCPOLYLINE((#218,#219));
#218=IFCCARTESIANPOINT((32.,6.));
#219=IFCCARTESIANPOINT((32.,127.777777778));
#220=IFCSHAPEREPRESENTATION(#19,'Axis','Curve2D',(#217));
#221=IFCWALLSTANDARDCASE('3v2_DnLGj9hwtCp1$F4Ovu',#2,'A Standard rectangular wall',$,$,#231,#230,$,$);
#222=IFCRECTANGLEPROFILEDEF(.AREA.,$,#224,5.,85.);
#223=IFCCARTESIANPOINT((0.,0.));
#224=IFCAXIS2PLACEMENT2D(#223,$);
#225=IFCEXTRUDEDAREASOLID(#222,#228,#226,100.);
#226=IFCDIRECTION((0.,0.,1.));
#227=IFCCARTESIANPOINT((36.,453.25,0.));
#228=IFCAXIS2PLACEMENT3D(#227,$,$);
#229=IFCSHAPEREPRESENTATION(#19,'Body','SweptSolid',(#225));
#230=IFCPRODUCTDEFINITIONSHAPE($,$,(#229,#244));
#231=IFCLOCALPLACEMENT($,#232);
#232=IFCAXIS2PLACEMENT3D(#227,#234,#233);
#233=IFCDIRECTION((1.,0.,0.));
#234=IFCDIRECTION((0.,0.,1.));
#235=IFCMATERIALLAYERSETUSAGE(#236,.AXIS2.,.NEGATIVE.,150.,$);
#236=IFCMATERIALLAYERSET((#237),$,$);
#237=IFCMATERIALLAYER($,10.,$,$,$,$,$);
#238=IFCMATERIAL('some material',$,$);
#239=IFCRELASSOCIATESMATERIAL('16cG8DGd98s95TC_o8TLR9',#2,$,$,(#221),#235);
#240=IFCPRESENTATIONLAYERASSIGNMENT('some ifcPresentationLayerAssignment',$,(#229),$);
#241=IFCPOLYLINE((#242,#243));
#242=IFCCARTESIANPOINT((36.,432.));
#243=IFCCARTESIANPOINT((36.,474.5));
#244=IFCSHAPEREPRESENTATION(#19,'Axis','Curve2D',(#241));
#245=IFCWALLSTANDARDCASE('3DnYbiuV9Cm8TUZ406nonG',#2,'A Standard rectangular wall',$,$,#255,#254,$,$);
#246=IFCRECTANGLEPROFILEDEF(.AREA.,$,#248,5.,76.);
#247=IFCCARTESIANPOINT((0.,0.));
#248=IFCAXIS2PLACEMENT2D(#247,$);
#249=IFCEXTRUDEDAREASOLID(#246,#252,#250,100.);
#250=IFCDIRECTION((0.,0.,1.));
#251=IFCCARTESIANPOINT((34.6666666667,243.,0.));
#252=IFCAXIS2PLACEMENT3D(#251,$,$);
#253=IFCSHAPEREPRESENTATION(#19,'Body','SweptSolid',(#249));
#254=IFCPRODUCTDEFINITIONSHAPE($,$,(#253,#268));
#255=IFCLOCALPLACEMENT($,#256);
#256=IFCAXIS2PLACEMENT3D(#251,#258,#257);
#257=IFCDIRECTION((1.,0.,0.));
#258=IFCDIRECTION((0.,0.,1.));
#259=IFCMATERIALLAYERSETUSAGE(#260,.AXIS2.,.NEGATIVE.,150.,$);
#260=IFCMATERIALLAYERSET((#261),$,$);
#261=IFCMATERIALLAYER($,10.,$,$,$,$,$);
#262=IFCMATERIAL('some material',$,$);
#263=IFCRELASSOCIATESMATERIAL('1ktuI2df92i9VFUScYcRkx',#2,$,$,(#245),#259);
#264=IFCPRESENTATIONLAYERASSIGNMENT('some ifcPresentationLayerAssignment',$,(#253),$);
#265=IFCPOLYLINE((#266,#267));
#266=IFCCARTESIANPOINT((34.6666666667,224.));
#267=IFCCARTESIANPOINT((34.6666666667,262.));
#268=IFCSHAPEREPRESENTATION(#19,'Axis','Curve2D',(#265));
#269=IFCWALLSTANDARDCASE('2qx1$5uij7k84rza_bVDam',#2,'A Standard rectangular wall',$,$,#279,#278,$,$);
#270=IFCRECTANGLEPROFILEDEF(.AREA.,$,#272,16.666666666599994,5.);
#271=IFCCARTESIANPOINT((0.,0.));
#272=IFCAXIS2PLACEMENT2D(#271,$);
#273=IFCEXTRUDEDAREASOLID(#270,#276,#274,100.);
#274=IFCDIRECTION((0.,0.,1.));
#275=IFCCARTESIANPOINT((38.83333333335,224.,0.));
#276=IFCAXIS2PLACEMENT3D(#275,$,$);
#277=IFCSHAPEREPRESENTATION(#19,'Body','SweptSolid',(#273));
#278=IFCPRODUCTDEFINITIONSHAPE($,$,(#277,#292));
#279=IFCLOCALPLACEMENT($,#280);
#280=IFCAXIS2PLACEMENT3D(#275,#282,#281);
#281=IFCDIRECTION((1.,0.,0.));
#282=IFCDIRECTION((0.,0.,1.));
#283=IFCMATERIALLAYERSETUSAGE(#284,.AXIS2.,.NEGATIVE.,150.,$);
#284=IFCMATERIALLAYERSET((#285),$,$);
#285=IFCMATERIALLAYER($,10.,$,$,$,$,$);
#286=IFCMATERIAL('some material',$,$);
#287=IFCRELASSOCIATESMATERIAL('0TkCF$h_b3rf59oZWPEL1j',#2,$,$,(#269),#283);
#288=IFCPRESENTATIONLAYERASSIGNMENT('some ifcPresentationLayerAssignment',$,(#277),$);
#289=IFCPOLYLINE((#290,#291));
#290=IFCCARTESIANPOINT((34.6666666667,224.));
#291=IFCCARTESIANPOINT((43.,224.));
#292=IFCSHAPEREPRESENTATION(#19,'Axis','Curve2D',(#289));
#293=IFCWALLSTANDARDCASE('1Nw4MS3svBn8XGbQ8QqZHg',#2,'A Standard rectangular wall',$,$,#303,#302,$,$);
#294=IFCRECTANGLEPROFILEDEF(.AREA.,$,#296,168.444444444,5.);
#295=IFCCARTESIANPOINT((0.,0.));
#296=IFCAXIS2PLACEMENT2D(#295,$);
#297=IFCEXTRUDEDAREASOLID(#294,#300,#298,100.);
#298=IFCDIRECTION((0.,0.,1.));
#299=IFCCARTESIANPOINT((74.111111111,6.,0.));
#300=IFCAXIS2PLACEMENT3D(#299,$,$);
#301=IFCSHAPEREPRESENTATION(#19,'Body','SweptSolid',(#297));
#302=IFCPRODUCTDEFINITIONSHAPE($,$,(#301,#316));
#303=IFCLOCALPLACEMENT($,#304);
#304=IFCAXIS2PLACEMENT3D(#299,#306,#305);
#305=IFCDIRECTION((1.,0.,0.));
#306=IFCDIRECTION((0.,0.,1.));
#307=IFCMATERIALLAYERSETUSAGE(#308,.AXIS2.,.NEGATIVE.,150.,$);
#308=IFCMATERIALLAYERSET((#309),$,$);
#309=IFCMATERIALLAYER($,10.,$,$,$,$,$);
#310=IFCMATERIAL('some material',$,$);
#311=IFCRELASSOCIATESMATERIAL('0J97UTyaDEa80vWEjdoM5n',#2,$,$,(#293),#307);
#312=IFCPRESENTATIONLAYERASSIGNMENT('some ifcPresentationLayerAssignment',$,(#301),$);
#313=IFCPOLYLINE((#314,#315));
#314=IFCCARTESIANPOINT((32.,6.));
#315=IFCCARTESIANPOINT((116.222222222,6.));
#316=IFCSHAPEREPRESENTATION(#19,'Axis','Curve2D',(#313));
#317=IFCWALLSTANDARDCASE('36frrQuVn6Q8b9It$Leka3',#2,'A Standard rectangular wall',$,$,#327,#326,$,$);
#318=IFCRECTANGLEPROFILEDEF(.AREA.,$,#320,106.88888888999998,5.);
#319=IFCCARTESIANPOINT((0.,0.));
#320=IFCAXIS2PLACEMENT2D(#319,$);
#321=IFCEXTRUDEDAREASOLID(#318,#324,#322,100.);
#322=IFCDIRECTION((0.,0.,1.));
#323=IFCCARTESIANPOINT((142.9444444445,6.,0.));
#324=IFCAXIS2PLACEMENT3D(#323,$,$);
#325=IFCSHAPEREPRESENTATION(#19,'Body','SweptSolid',(#321));
#326=IFCPRODUCTDEFINITIONSHAPE($,$,(#325,#340));
#327=IFCLOCALPLACEMENT($,#328);
#328=IFCAXIS2PLACEMENT3D(#323,#330,#329);
#329=IFCDIRECTION((1.,0.,0.));
#330=IFCDIRECTION((0.,0.,1.));
#331=IFCMATERIALLAYERSETUSAGE(#332,.AXIS2.,.NEGATIVE.,150.,$);
#332=IFCMATERIALLAYERSET((#333),$,$);
#333=IFCMATERIALLAYER($,10.,$,$,$,$,$);
#334=IFCMATERIAL('some material',$,$);
#335=IFCRELASSOCIATESMATERIAL('0gmUIFKzL1EPHI2vPhQdTD',#2,$,$,(#317),#331);
#336=IFCPRESENTATIONLAYERASSIGNMENT('some ifcPresentationLayerAssignment',$,(#325),$);
#337=IFCPOLYLINE((#338,#339));
#338=IFCCARTESIANPOINT((116.222222222,6.));
#339=IFCCARTESIANPOINT((169.666666667,6.));
#340=IFCSHAPEREPRESENTATION(#19,'Axis','Curve2D',(#337));
#341=IFCWALLSTANDARDCASE('2idm9PmHv7YPr8FqyDAXRV',#2,'A Standard rectangular wall',$,$,#351,#350,$,$);
#342=IFCRECTANGLEPROFILEDEF(.AREA.,$,#344,5.,100.6666666666);
#343=IFCCARTESIANPOINT((0.,0.));
#344=IFCAXIS2PLACEMENT2D(#343,$);
#345=IFCEXTRUDEDAREASOLID(#342,#348,#346,100.);
#346=IFCDIRECTION((0.,0.,1.));
#347=IFCCARTESIANPOINT((169.666666667,31.16666666665,0.));
#348=IFCAXIS2PLACEMENT3D(#347,$,$);
#349=IFCSHAPEREPRESENTATION(#19,'Body','SweptSolid',(#345));
#350=IFCPRODUCTDEFINITIONSHAPE($,$,(#349,#364));
#351=IFCLOCALPLACEMENT($,#352);
#352=IFCAXIS2PLACEMENT3D(#347,#354,#353);
#353=IFCDIRECTION((1.,0.,0.));
#354=IFCDIRECTION((0.,0.,1.));
#355=IFCMATERIALLAYERSETUSAGE(#356,.AXIS2.,.NEGATIVE.,150.,$);
#356=IFCMATERIALLAYERSET((#357),$,$);
#357=IFCMATERIALLAYER($,10.,$,$,$,$,$);
#358=IFCMATERIAL('some material',$,$);
#359=IFCRELASSOCIATESMATERIAL('2g5Yg4zX56g8WAf5dJX7_T',#2,$,$,(#341),#355);
#360=IFCPRESENTATIONLAYERASSIGNMENT('some ifcPresentationLayerAssignment',$,(#349),$);
#361=IFCPOLYLINE((#362,#363));
#362=IFCCARTESIANPOINT((169.666666667,6.));
#363=IFCCARTESIANPOINT((169.666666667,56.3333333333));
#364=IFCSHAPEREPRESENTATION(#19,'Axis','Curve2D',(#361));
#365=IFCWALLSTANDARDCASE('1AFvCPqR9438MMc1Qn9BIz',#2,'A Standard rectangular wall',$,$,#375,#374,$,$);
#366=IFCRECTANGLEPROFILEDEF(.AREA.,$,#368,66.444444444,5.);
#367=IFCCARTESIANPOINT((0.,0.));
#368=IFCAXIS2PLACEMENT2D(#367,$);
#369=IFCEXTRUDEDAREASOLID(#366,#372,#370,100.);
#370=IFCDIRECTION((0.,0.,1.));
#371=IFCCARTESIANPOINT((212.611111111,56.3333333333,0.));
#372=IFCAXIS2PLACEMENT3D(#371,$,$);
#373=IFCSHAPEREPRESENTATION(#19,'Body','SweptSolid',(#369));
#374=IFCPRODUCTDEFINITIONSHAPE($,$,(#373,#388));
#375=IFCLOCALPLACEMENT($,#376);
#376=IFCAXIS2PLACEMENT3D(#371,#378,#377);
#377=IFCDIRECTION((1.,0.,0.));
#378=IFCDIRECTION((0.,0.,1.));
#379=IFCMATERIALLAYERSETUSAGE(#380,.AXIS2.,.NEGATIVE.,150.,$);
#380=IFCMATERIALLAYERSET((#381),$,$);
#381=IFCMATERIALLAYER($,10.,$,$,$,$,$);
#382=IFCMATERIAL('some material',$,$);
#383=IFCRELASSOCIATESMATERIAL('33YLnnibX0zOosdj5squJ2',#2,$,$,(#365),#379);
#384=IFCPRESENTATIONLAYERASSIGNMENT('some ifcPresentationLayerAssignment',$,(#373),$);
#385=IFCPOLYLINE((#386,#387));
#386=IFCCARTESIANPOINT((196.,56.3333333333));
#387=IFCCARTESIANPOINT((229.222222222,56.3333333333));
#388=IFCSHAPEREPRESENTATION(#19,'Axis','Curve2D',(#385));
#389=IFCWALLSTANDARDCASE('1M8cZUQYz5hxvEwXgtwefz',#2,'A Standard rectangular wall',$,$,#399,#398,$,$);
#390=IFCRECTANGLEPROFILEDEF(.AREA.,$,#392,5.,77.3333333334);
#391=IFCCARTESIANPOINT((0.,0.));
#392=IFCAXIS2PLACEMENT2D(#391,$);
#393=IFCEXTRUDEDAREASOLID(#390,#396,#394,100.);
#394=IFCDIRECTION((0.,0.,1.));
#395=IFCCARTESIANPOINT((229.222222222,75.66666666665,0.));
#396=IFCAXIS2PLACEMENT3D(#395,$,$);
#397=IFCSHAPEREPRESENTATION(#19,'Body','SweptSolid',(#393));
#398=IFCPRODUCTDEFINITIONSHAPE($,$,(#397,#412));
#399=IFCLOCALPLACEMENT($,#400);
#400=IFCAXIS2PLACEMENT3D(#395,#402,#401);
#401=IFCDIRECTION((1.,0.,0.));
#402=IFCDIRECTION((0.,0.,1.));
#403=IFCMATERIALLAYERSETUSAGE(#404,.AXIS2.,.NEGATIVE.,150.,$);
#404=IFCMATERIALLAYERSET((#405),$,$);
#405=IFCMATERIALLAYER($,10.,$,$,$,$,$);
#406=IFCMATERIAL('some material',$,$);
#407=IFCRELASSOCIATESMATERIAL('2_FiHSJ799I9mhG0NiHn0$',#2,$,$,(#389),#403);
#408=IFCPRESENTATIONLAYERASSIGNMENT('some ifcPresentationLayerAssignment',$,(#397),$);
#409=IFCPOLYLINE((#410,#411));
#410=IFCCARTESIANPOINT((229.222222222,56.3333333333));
#411=IFCCARTESIANPOINT((229.222222222,95.));
#412=IFCSHAPEREPRESENTATION(#19,'Axis','Curve2D',(#409));
#413=IFCWALLSTANDARDCASE('1bKPpi8dr1tQXzP334xR7Y',#2,'A Standard rectangular wall',$,$,#423,#422,$,$);
#414=IFCRECTANGLEPROFILEDEF(.AREA.,$,#416,5.,77.3333333334);
#415=IFCCARTESIANPOINT((0.,0.));
#416=IFCAXIS2PLACEMENT2D(#415,$);
#417=IFCEXTRUDEDAREASOLID(#414,#420,#418,100.);
#418=IFCDIRECTION((0.,0.,1.));
#419=IFCCARTESIANPOINT((196.,75.66666666665,0.));
#420=IFCAXIS2PLACEMENT3D(#419,$,$);
#421=IFCSHAPEREPRESENTATION(#19,'Body','SweptSolid',(#417));
#422=IFCPRODUCTDEFINITIONSHAPE($,$,(#421,#436));
#423=IFCLOCALPLACEMENT($,#424);
#424=IFCAXIS2PLACEMENT3D(#419,#426,#425);
#425=IFCDIRECTION((1.,0.,0.));
#426=IFCDIRECTION((0.,0.,1.));
#427=IFCMATERIALLAYERSETUSAGE(#428,.AXIS2.,.NEGATIVE.,150.,$);
#428=IFCMATERIALLAYERSET((#429),$,$);
#429=IFCMATERIALLAYER($,10.,$,$,$,$,$);
#430=IFCMATERIAL('some material',$,$);
#431=IFCRELASSOCIATESMATERIAL('221jdAh_f3wB3m91EK3EEr',#2,$,$,(#413),#427);
#432=IFCPRESENTATIONLAYERASSIGNMENT('some ifcPresentationLayerAssignment',$,(#421),$);
#433=IFCPOLYLINE((#434,#435));
#434=IFCCARTESIANPOINT((196.,56.3333333333));
#435=IFCCARTESIANPOINT((196.,95.));
#436=IFCSHAPEREPRESENTATION(#19,'Axis','Curve2D',(#433));
#437=IFCWALLSTANDARDCASE('1vp0yZgBb4O90nkGzjcqn7',#2,'A Standard rectangular wall',$,$,#447,#446,$,$);
#438=IFCRECTANGLEPROFILEDEF(.AREA.,$,#440,52.666666666000026,5.);
#439=IFCCARTESIANPOINT((0.,0.));
#440=IFCAXIS2PLACEMENT2D(#439,$);
#441=IFCEXTRUDEDAREASOLID(#438,#444,#442,100.);
#442=IFCDIRECTION((0.,0.,1.));
#443=IFCCARTESIANPOINT((182.83333333349998,56.3333333333,0.));
#444=IFCAXIS2PLACEMENT3D(#443,$,$);
#445=IFCSHAPEREPRESENTATION(#19,'Body','SweptSolid',(#441));
#446=IFCPRODUCTDEFINITIONSHAPE($,$,(#445,#460));
#447=IFCLOCALPLACEMENT($,#448);
#448=IFCAXIS2PLACEMENT3D(#443,#450,#449);
#449=IFCDIRECTION((1.,0.,0.));
#450=IFCDIRECTION((0.,0.,1.));
#451=IFCMATERIALLAYERSETUSAGE(#452,.AXIS2.,.NEGATIVE.,150.,$);
#452=IFCMATERIALLAYERSET((#453),$,$);
#453=IFCMATERIALLAYER($,10.,$,$,$,$,$);
#454=IFCMATERIAL('some material',$,$);
#455=IFCRELASSOCIATESMATERIAL('17qNSHmPb6rxjDrlUxApXy',#2,$,$,(#437),#451);
#456=IFCPRESENTATIONLAYERASSIGNMENT('some ifcPresentationLayerAssignment',$,(#445),$);
#457=IFCPOLYLINE((#458,#459));
#458=IFCCARTESIANPOINT((169.666666667,56.3333333333));
#459=IFCCARTESIANPOINT((196.,56.3333333333));
#460=IFCSHAPEREPRESENTATION(#19,'Axis','Curve2D',(#457));
#461=IFCWALLSTANDARDCASE('0ht1AaIR16HAvNoTBMuMpw',#2,'A Standard rectangular wall',$,$,#471,#470,$,$);
#462=IFCRECTANGLEPROFILEDEF(.AREA.,$,#464,5.,243.555555556);
#463=IFCCARTESIANPOINT((0.,0.));
#464=IFCAXIS2PLACEMENT2D(#463,$);
#465=IFCEXTRUDEDAREASOLID(#462,#468,#466,100.);
#466=IFCDIRECTION((0.,0.,1.));
#467=IFCCARTESIANPOINT((116.222222222,66.888888889,0.));
#468=IFCAXIS2PLACEMENT3D(#467,$,$);
#469=IFCSHAPEREPRESENTATION(#19,'Body','SweptSolid',(#465));
#470=IFCPRODUCTDEFINITIONSHAPE($,$,(#469,#484));
#471=IFCLOCALPLACEMENT($,#472);
#472=IFCAXIS2PLACEMENT3D(#467,#474,#473);
#473=IFCDIRECTION((1.,0.,0.));
#474=IFCDIRECTION((0.,0.,1.));
#475=IFCMATERIALLAYERSETUSAGE(#476,.AXIS2.,.NEGATIVE.,150.,$);
#476=IFCMATERIALLAYERSET((#477),$,$);
#477=IFCMATERIALLAYER($,10.,$,$,$,$,$);
#478=IFCMATERIAL('some material',$,$);
#479=IFCRELASSOCIATESMATERIAL('08oAVZQpPApOppy7vYk8fJ',#2,$,$,(#461),#475);
#480=IFCPRESENTATIONLAYERASSIGNMENT('some ifcPresentationLayerAssignment',$,(#469),$);
#481=IFCPOLYLINE((#482,#483));
#482=IFCCARTESIANPOINT((116.222222222,6.));
#483=IFCCARTESIANPOINT((116.222222222,127.777777778));
#484=IFCSHAPEREPRESENTATION(#19,'Axis','Curve2D',(#481));
#485=IFCWALLSTANDARDCASE('33iD5sOgTDe9Jl5xH4LGVB',#2,'A Standard rectangular wall',$,$,#495,#494,$,$);
#486=IFCRECTANGLEPROFILEDEF(.AREA.,$,#488,146.444444444,5.);
#487=IFCCARTESIANPOINT((0.,0.));
#488=IFCAXIS2PLACEMENT2D(#487,$);
#489=IFCEXTRUDEDAREASOLID(#486,#492,#490,100.);
#490=IFCDIRECTION((0.,0.,1.));
#491=IFCCARTESIANPOINT((79.611111111,127.777777778,0.));
#492=IFCAXIS2PLACEMENT3D(#491,$,$);
#493=IFCSHAPEREPRESENTATION(#19,'Body','SweptSolid',(#489));
#494=IFCPRODUCTDEFINITIONSHAPE($,$,(#493,#508));
#495=IFCLOCALPLACEMENT($,#496);
#496=IFCAXIS2PLACEMENT3D(#491,#498,#497);
#497=IFCDIRECTION((1.,0.,0.));
#498=IFCDIRECTION((0.,0.,1.));
#499=IFCMATERIALLAYERSETUSAGE(#500,.AXIS2.,.NEGATIVE.,150.,$);
#500=IFCMATERIALLAYERSET((#501),$,$);
#501=IFCMATERIALLAYER($,10.,$,$,$,$,$);
#502=IFCMATERIAL('some material',$,$);
#503=IFCRELASSOCIATESMATERIAL('1b8eMHMYLBJPL9m$sAx17W',#2,$,$,(#485),#499);
#504=IFCPRESENTATIONLAYERASSIGNMENT('some ifcPresentationLayerAssignment',$,(#493),$);
#505=IFCPOLYLINE((#506,#507));
#506=IFCCARTESIANPOINT((43.,127.777777778));
#507=IFCCARTESIANPOINT((116.222222222,127.777777778));
#508=IFCSHAPEREPRESENTATION(#19,'Axis','Curve2D',(#505));
#509=IFCWALLSTANDARDCASE('00o30Cu3P2w8uIIhnhCkZo',#2,'A Standard rectangular wall',$,$,#519,#518,$,$);
#510=IFCRECTANGLEPROFILEDEF(.AREA.,$,#512,5.,192.444444444);
#511=IFCCARTESIANPOINT((0.,0.));
#512=IFCAXIS2PLACEMENT2D(#511,$);
#513=IFCEXTRUDEDAREASOLID(#510,#516,#514,100.);
#514=IFCDIRECTION((0.,0.,1.));
#515=IFCCARTESIANPOINT((43.,175.888888889,0.));
#516=IFCAXIS2PLACEMENT3D(#515,$,$);
#517=IFCSHAPEREPRESENTATION(#19,'Body','SweptSolid',(#513));
#518=IFCPRODUCTDEFINITIONSHAPE($,$,(#517,#532));
#519=IFCLOCALPLACEMENT($,#520);
#520=IFCAXIS2PLACEMENT3D(#515,#522,#521);
#521=IFCDIRECTION((1.,0.,0.));
#522=IFCDIRECTION((0.,0.,1.));
#523=IFCMATERIALLAYERSETUSAGE(#524,.AXIS2.,.NEGATIVE.,150.,$);
#524=IFCMATERIALLAYERSET((#525),$,$);
#525=IFCMATERIALLAYER($,10.,$,$,$,$,$);
#526=IFCMATERIAL('some material',$,$);
#527=IFCRELASSOCIATESMATERIAL('1OB27ooifDyAgrFUl78AUT',#2,$,$,(#509),#523);
#528=IFCPRESENTATIONLAYERASSIGNMENT('some ifcPresentationLayerAssignment',$,(#517),$);
#529=IFCPOLYLINE((#530,#531));
#530=IFCCARTESIANPOINT((43.,127.777777778));
#531=IFCCARTESIANPOINT((43.,224.));
#532=IFCSHAPEREPRESENTATION(#19,'Axis','Curve2D',(#529));
#533=IFCWALLSTANDARDCASE('1sz0bgemD8$OUH5EWcrPyK',#2,'A Standard rectangular wall',$,$,#543,#542,$,$);
#534=IFCRECTANGLEPROFILEDEF(.AREA.,$,#536,5.,674.);
#535=IFCCARTESIANPOINT((0.,0.));
#536=IFCAXIS2PLACEMENT2D(#535,$);
#537=IFCEXTRUDEDAREASOLID(#534,#540,#538,100.);
#538=IFCDIRECTION((0.,0.,1.));
#539=IFCCARTESIANPOINT((229.222222222,263.5,0.));
#540=IFCAXIS2PLACEMENT3D(#539,$,$);
#541=IFCSHAPEREPRESENTATION(#19,'Body','SweptSolid',(#537));
#542=IFCPRODUCTDEFINITIONSHAPE($,$,(#541,#556));
#543=IFCLOCALPLACEMENT($,#544);
#544=IFCAXIS2PLACEMENT3D(#539,#546,#545);
#545=IFCDIRECTION((1.,0.,0.));
#546=IFCDIRECTION((0.,0.,1.));
#547=IFCMATERIALLAYERSETUSAGE(#548,.AXIS2.,.NEGATIVE.,150.,$);
#548=IFCMATERIALLAYERSET((#549),$,$);
#549=IFCMATERIALLAYER($,10.,$,$,$,$,$);
#550=IFCMATERIAL('some material',$,$);
#551=IFCRELASSOCIATESMATERIAL('0rrugq45f4vO8tC17MR_FW',#2,$,$,(#533),#547);
#552=IFCPRESENTATIONLAYERASSIGNMENT('some ifcPresentationLayerAssignment',$,(#541),$);
#553=IFCPOLYLINE((#554,#555));
#554=IFCCARTESIANPOINT((229.222222222,95.));
#555=IFCCARTESIANPOINT((229.222222222,432.));
#556=IFCSHAPEREPRESENTATION(#19,'Axis','Curve2D',(#553));
#557=IFCWALLSTANDARDCASE('2oSkkD0Sz9zOhjCGtQdGAu',#2,'A Standard rectangular wall',$,$,#567,#566,$,$);
#558=IFCRECTANGLEPROFILEDEF(.AREA.,$,#560,66.444444444,5.);
#559=IFCCARTESIANPOINT((0.,0.));
#560=IFCAXIS2PLACEMENT2D(#559,$);
#561=IFCEXTRUDEDAREASOLID(#558,#564,#562,100.);
#562=IFCDIRECTION((0.,0.,1.));
#563=IFCCARTESIANPOINT((212.611111111,95.,0.));
#564=IFCAXIS2PLACEMENT3D(#563,$,$);
#565=IFCSHAPEREPRESENTATION(#19,'Body','SweptSolid',(#561));
#566=IFCPRODUCTDEFINITIONSHAPE($,$,(#565,#580));
#567=IFCLOCALPLACEMENT($,#568);
#568=IFCAXIS2PLACEMENT3D(#563,#570,#569);
#569=IFCDIRECTION((1.,0.,0.));
#570=IFCDIRECTION((0.,0.,1.));
#571=IFCMATERIALLAYERSETUSAGE(#572,.AXIS2.,.NEGATIVE.,150.,$);
#572=IFCMATERIALLAYERSET((#573),$,$);
#573=IFCMATERIALLAYER($,10.,$,$,$,$,$);
#574=IFCMATERIAL('some material',$,$);
#575=IFCRELASSOCIATESMATERIAL('1AYY5OmaH79AeySz1BYErF',#2,$,$,(#557),#571);
#576=IFCPRESENTATIONLAYERASSIGNMENT('some ifcPresentationLayerAssignment',$,(#565),$);
#577=IFCPOLYLINE((#578,#579));
#578=IFCCARTESIANPOINT((196.,95.));
#579=IFCCARTESIANPOINT((229.222222222,95.));
#580=IFCSHAPEREPRESENTATION(#19,'Axis','Curve2D',(#577));
#581=IFCWALLSTANDARDCASE('2GRS4k3Zv6duuLuAjPjiNw',#2,'A Standard rectangular wall',$,$,#591,#590,$,$);
#582=IFCRECTANGLEPROFILEDEF(.AREA.,$,#584,389.1111111106,5.);
#583=IFCCARTESIANPOINT((0.,0.));
#584=IFCAXIS2PLACEMENT2D(#583,$);
#585=IFCEXTRUDEDAREASOLID(#582,#588,#586,100.);
#586=IFCDIRECTION((0.,0.,1.));
#587=IFCCARTESIANPOINT((131.94444444435,432.,0.));
#588=IFCAXIS2PLACEMENT3D(#587,$,$);
#589=IFCSHAPEREPRESENTATION(#19,'Body','SweptSolid',(#585));
#590=IFCPRODUCTDEFINITIONSHAPE($,$,(#589,#604));
#591=IFCLOCALPLACEMENT($,#592);
#592=IFCAXIS2PLACEMENT3D(#587,#594,#593);
#593=IFCDIRECTION((1.,0.,0.));
#594=IFCDIRECTION((0.,0.,1.));
#595=IFCMATERIALLAYERSETUSAGE(#596,.AXIS2.,.NEGATIVE.,150.,$);
#596=IFCMATERIALLAYERSET((#597),$,$);
#597=IFCMATERIALLAYER($,10.,$,$,$,$,$);
#598=IFCMATERIAL('some material',$,$);
#599=IFCRELASSOCIATESMATERIAL('2YqiILTVf4hOG_eDVGPGkR',#2,$,$,(#581),#595);
#600=IFCPRESENTATIONLAYERASSIGNMENT('some ifcPresentationLayerAssignment',$,(#589),$);
#601=IFCPOLYLINE((#602,#603));
#602=IFCCARTESIANPOINT((34.6666666667,432.));
#603=IFCCARTESIANPOINT((229.222222222,432.));
#604=IFCSHAPEREPRESENTATION(#19,'Axis','Curve2D',(#601));
#605=IFCWALLSTANDARDCASE('0IoCGw8wbD9OlktjPSuoN_',#2,'A Standard rectangular wall',$,$,#615,#614,$,$);
#606=IFCRECTANGLEPROFILEDEF(.AREA.,$,#608,5.,192.444444444);
#607=IFCCARTESIANPOINT((0.,0.));
#608=IFCAXIS2PLACEMENT2D(#607,$);
#609=IFCEXTRUDEDAREASOLID(#606,#612,#610,100.);
#610=IFCDIRECTION((0.,0.,1.));
#611=IFCCARTESIANPOINT((116.222222222,175.888888889,0.));
#612=IFCAXIS2PLACEMENT3D(#611,$,$);
#613=IFCSHAPEREPRESENTATION(#19,'Body','SweptSolid',(#609));
#614=IFCPRODUCTDEFINITIONSHAPE($,$,(#613,#628));
#615=IFCLOCALPLACEMENT($,#616);
#616=IFCAXIS2PLACEMENT3D(#611,#618,#617);
#617=IFCDIRECTION((1.,0.,0.));
#618=IFCDIRECTION((0.,0.,1.));
#619=IFCMATERIALLAYERSETUSAGE(#620,.AXIS2.,.NEGATIVE.,150.,$);
#620=IFCMATERIALLAYERSET((#621),$,$);
#621=IFCMATERIALLAYER($,10.,$,$,$,$,$);
#622=IFCMATERIAL('some material',$,$);
#623=IFCRELASSOCIATESMATERIAL('1DIFtHOvHFPvkiPabpojxD',#2,$,$,(#605),#619);
#624=IFCPRESENTATIONLAYERASSIGNMENT('some ifcPresentationLayerAssignment',$,(#613),$);
#625=IFCPOLYLINE((#626,#627));
#626=IFCCARTESIANPOINT((116.222222222,127.777777778));
#627=IFCCARTESIANPOINT((116.222222222,224.));
#628=IFCSHAPEREPRESENTATION(#19,'Axis','Curve2D',(#625));
#629=IFCWALLSTANDARDCASE('2dmCnI4wTCmvLHXDZY$PRy',#2,'A Standard rectangular wall',$,$,#639,#638,$,$);
#630=IFCRECTANGLEPROFILEDEF(.AREA.,$,#632,146.444444444,5.);
#631=IFCCARTESIANPOINT((0.,0.));
#632=IFCAXIS2PLACEMENT2D(#631,$);
#633=IFCEXTRUDEDAREASOLID(#630,#636,#634,100.);
#634=IFCDIRECTION((0.,0.,1.));
#635=IFCCARTESIANPOINT((79.611111111,224.,0.));
#636=IFCAXIS2PLACEMENT3D(#635,$,$);
#637=IFCSHAPEREPRESENTATION(#19,'Body','SweptSolid',(#633));
#638=IFCPRODUCTDEFINITIONSHAPE($,$,(#637,#652));
#639=IFCLOCALPLACEMENT($,#640);
#640=IFCAXIS2PLACEMENT3D(#635,#642,#641);
#641=IFCDIRECTION((1.,0.,0.));
#642=IFCDIRECTION((0.,0.,1.));
#643=IFCMATERIALLAYERSETUSAGE(#644,.AXIS2.,.NEGATIVE.,150.,$);
#644=IFCMATERIALLAYERSET((#645),$,$);
#645=IFCMATERIALLAYER($,10.,$,$,$,$,$);
#646=IFCMATERIAL('some material',$,$);
#647=IFCRELASSOCIATESMATERIAL('17qKj2zsf6dO6gn07lHB6m',#2,$,$,(#629),#643);
#648=IFCPRESENTATIONLAYERASSIGNMENT('some ifcPresentationLayerAssignment',$,(#637),$);
#649=IFCPOLYLINE((#650,#651));
#650=IFCCARTESIANPOINT((43.,224.));
#651=IFCCARTESIANPOINT((116.222222222,224.));
#652=IFCSHAPEREPRESENTATION(#19,'Axis','Curve2D',(#649));
#653=IFCWALLSTANDARDCASE('1jgKDHQLT2quAyW_IcXsXw',#2,'A Standard rectangular wall',$,$,#663,#662,$,$);
#654=IFCRECTANGLEPROFILEDEF(.AREA.,$,#656,52.666666666000026,5.);
#655=IFCCARTESIANPOINT((0.,0.));
#656=IFCAXIS2PLACEMENT2D(#655,$);
#657=IFCEXTRUDEDAREASOLID(#654,#660,#658,100.);
#658=IFCDIRECTION((0.,0.,1.));
#659=IFCCARTESIANPOINT((182.83333333349998,95.,0.));
#660=IFCAXIS2PLACEMENT3D(#659,$,$);
#661=IFCSHAPEREPRESENTATION(#19,'Body','SweptSolid',(#657));
#662=IFCPRODUCTDEFINITIONSHAPE($,$,(#661,#676));
#663=IFCLOCALPLACEMENT($,#664);
#664=IFCAXIS2PLACEMENT3D(#659,#666,#665);
#665=IFCDIRECTION((1.,0.,0.));
#666=IFCDIRECTION((0.,0.,1.));
#667=IFCMATERIALLAYERSETUSAGE(#668,.AXIS2.,.NEGATIVE.,150.,$);
#668=IFCMATERIALLAYERSET((#669),$,$);
#669=IFCMATERIALLAYER($,10.,$,$,$,$,$);
#670=IFCMATERIAL('some material',$,$);
#671=IFCRELASSOCIATESMATERIAL('2N_AncXB52tQghNKjYiAH6',#2,$,$,(#653),#667);
#672=IFCPRESENTATIONLAYERASSIGNMENT('some ifcPresentationLayerAssignment',$,(#661),$);
#673=IFCPOLYLINE((#674,#675));
#674=IFCCARTESIANPOINT((169.666666667,95.));
#675=IFCCARTESIANPOINT((196.,95.));
#676=IFCSHAPEREPRESENTATION(#19,'Axis','Curve2D',(#673));
#677=IFCWALLSTANDARDCASE('1il9dKZhf1UeGEFLWBW8Eu',#2,'A Standard rectangular wall',$,$,#687,#686,$,$);
#678=IFCRECTANGLEPROFILEDEF(.AREA.,$,#680,5.,340.);
#679=IFCCARTESIANPOINT((0.,0.));
#680=IFCAXIS2PLACEMENT2D(#679,$);
#681=IFCEXTRUDEDAREASOLID(#678,#684,#682,100.);
#682=IFCDIRECTION((0.,0.,1.));
#683=IFCCARTESIANPOINT((34.6666666667,347.,0.));
#684=IFCAXIS2PLACEMENT3D(#683,$,$);
#685=IFCSHAPEREPRESENTATION(#19,'Body','SweptSolid',(#681));
#686=IFCPRODUCTDEFINITIONSHAPE($,$,(#685,#700));
#687=IFCLOCALPLACEMENT($,#688);
#688=IFCAXIS2PLACEMENT3D(#683,#690,#689);
#689=IFCDIRECTION((1.,0.,0.));
#690=IFCDIRECTION((0.,0.,1.));
#691=IFCMATERIALLAYERSETUSAGE(#692,.AXIS2.,.NEGATIVE.,150.,$);
#692=IFCMATERIALLAYERSET((#693),$,$);
#693=IFCMATERIALLAYER($,10.,$,$,$,$,$);
#694=IFCMATERIAL('some material',$,$);
#695=IFCRELASSOCIATESMATERIAL('3sbdhEi8PBoBKS_NbhnP1t',#2,$,$,(#677),#691);
#696=IFCPRESENTATIONLAYERASSIGNMENT('some ifcPresentationLayerAssignment',$,(#685),$);
#697=IFCPOLYLINE((#698,#699));
#698=IFCCARTESIANPOINT((34.6666666667,262.));
#699=IFCCARTESIANPOINT((34.6666666667,432.));
#700=IFCSHAPEREPRESENTATION(#19,'Axis','Curve2D',(#697));
#701=IFCWALLSTANDARDCASE('0wB7pDIlrCvfVSfCc5aiAn',#2,'A Standard rectangular wall',$,$,#711,#710,$,$);
#702=IFCRECTANGLEPROFILEDEF(.AREA.,$,#704,5.,77.3333333334);
#703=IFCCARTESIANPOINT((0.,0.));
#704=IFCAXIS2PLACEMENT2D(#703,$);
#705=IFCEXTRUDEDAREASOLID(#702,#708,#706,100.);
#706=IFCDIRECTION((0.,0.,1.));
#707=IFCCARTESIANPOINT((169.666666667,75.66666666665,0.));
#708=IFCAXIS2PLACEMENT3D(#707,$,$);
#709=IFCSHAPEREPRESENTATION(#19,'Body','SweptSolid',(#705));
#710=IFCPRODUCTDEFINITIONSHAPE($,$,(#709,#724));
#711=IFCLOCALPLACEMENT($,#712);
#712=IFCAXIS2PLACEMENT3D(#707,#714,#713);
#713=IFCDIRECTION((1.,0.,0.));
#714=IFCDIRECTION((0.,0.,1.));
#715=IFCMATERIALLAYERSETUSAGE(#716,.AXIS2.,.NEGATIVE.,150.,$);
#716=IFCMATERIALLAYERSET((#717),$,$);
#717=IFCMATERIALLAYER($,10.,$,$,$,$,$);
#718=IFCMATERIAL('some material',$,$);
#719=IFCRELASSOCIATESMATERIAL('1811GJ5SPEHOB6ih_8cGQ_',#2,$,$,(#701),#715);
#720=IFCPRESENTATIONLAYERASSIGNMENT('some ifcPresentationLayerAssignment',$,(#709),$);
#721=IFCPOLYLINE((#722,#723));
#722=IFCCARTESIANPOINT((169.666666667,56.3333333333));
#723=IFCCARTESIANPOINT((169.666666667,95.));
#724=IFCSHAPEREPRESENTATION(#19,'Axis','Curve2D',(#721));
ENDSEC;
END-ISO-10303-21;
